<?xml version="1.0" encoding="utf-8"?>
<!-- Generator: Adobe Illustrator 24.0.1, SVG Export Plug-In . SVG Version: 6.00 Build 0)  -->
<svg version="1.1" id="Camada_1" xmlns="http://www.w3.org/2000/svg" xmlns:xlink="http://www.w3.org/1999/xlink" x="0px" y="0px"
	 viewBox="0 0 1920 1080" style="enable-background:new 0 0 1920 1080;" xml:space="preserve">
<style type="text/css">
	.st0{fill:#FFFFFF;stroke:#FFFFFF;stroke-miterlimit:10;}
	.st1{fill:#0E8E00;}
	.st2{fill:#FF0000;}
	.st3{fill:#E8FF03;}
	.st4{fill:#FFFFFF;}
</style>
<path d="M325,833c0,0-13.5,35.9,9,31.4c0,0,118.9,29.2,186.2-29.2c0,0,62.8-44.9,17.9-139.1c0,0-17.9-35.9,0-40.4
	c0,0,44.9-9,26.9-22.4c0,0-62.8,4.5-58.3-13.5c0,0-9-13.5-9-35.9c0,0,40.4,0,22.4-58.3c0,0,13.5-13.5,4.5-26.9c0,0,35.9,0,49.3,9
	c0,0,17.9,9,0-17.9l-25.4-32.3c0,0,23-22,43.4-30.5c0,0,29.6-23.5,22.4-26.9c0,0-8.8-8.6,9-13.5c0,0,59.2-40.1,17.9-143.6
	c0,0-17.9-53.8-67.3-67.3c0,0-26.9,22.4-26.9-13.5c0,0-103.2-53.8-201.9,49.3l-13.4,18c0,0,9,13.5,0,13.5c0,0-31.4,0-22.4,125.6
	c0,0,4.5,40.4,26.9,53.8c0,0-9,9,40.4,49.3c0,0,53.8,40.4,4.5-49.3c0,0-9-49.3,40.4-26.9c0,0,17.9,9,0,53.8c0,0-9-4.5,4.5,125.6
	c0,0,0,85.2-31.4,53.8c0,0-9-9-9-31.4c0,0,0-35.9-49.3-89.7c0,0-67.3-49.3-71.8-35.9c0,0-4.5,17.9-13.5-4.5c0,0-62.8-13.5-94.2,35.9
	l-9,13.5c0,0,13.5,13.5,0,9c0,0-17.9,22.4,4.5,76.3c0,0,9,17.9,13.5,22.4c0,0,0,4.5,9,4.5c0,0-13.5,4.5,13.5,26.9
	c0,0,76.3,76.3,134.6,67.3c0,0-9-13.5-22.4-22.4c0,0-44.9-44.9-4.5-35.9c0,0,40.4,9,40.4,67.3C336.2,732.1,340.7,727.6,325,833z"/>
<path class="st0" d="M442.5,705.5c0,0,1-6,7-2c0,0,9-3,8,4c0,0,8-2,7,5c0,0,6-1,6,6l2,1c0,0,2-4,5-3c0,0-1-9,7-8c0,0,3-5,7-2
	c0,0,4-7,8-1c0,0,6-4,8,3c0,0,4,0,4,4c0,0,7-2,7,6l5,2v5c0,0,5-1,4,6c0,0,5,3,2,9c0,0,5,1,2,8c0,0,5,4,0,10c0,0,3,4-1,7c0,0,4,5-1,9
	c0,0,2,4-2,6c0,0,2,6-3,8c0,0,1,5-4,6c0,0,2,5-4,7c0,0,0,5-5,5c0,0-1,5-5,5c0,0,1,4-6,5c0,0,1,5-6,5c0,0,2,5-6,4c0,0-4,5-8,0
	c0,0-1,7-6,0c0,0,0-3,3-3c0,0-6-5,1-8c0,0-1-6,1-5c0,0-2-5-6-4c0,0-1-2-3-1c0,0-4,3-7-2c0,0-4,3-7-3c0,0-6,0-5-5c0,0-5,2-6-4
	c0,0-6,0-5-6c0,0-6,2-5-6c0,0-6-1-3-7c0,0-6-1-4-8c0,0-5-2-3-7c0,0-5-4-2-8c0,0-4-5,0-8c0,0-4-4,0-9c0,0-3-7,3-8c0,0-3-6,3-8
	c0,0-1-7,6-6C435.5,709.5,435.5,703.5,442.5,705.5z"/>
<path class="st1" d="M447,716c0,0,17-2,24,25c0,0,3,12,5,0c0,0,4.5-27.5,20.5-21.5c0,0,26,7,26,44c0,0,3,24-30,50c0,0-2,4-8,5
	c0,0,4-12,2-17c0,0,0-9-17-9c0,0-23-8-33-35c0,0-10-22-1-35C435.5,722.5,440.5,714.5,447,716z"/>
<circle class="st2" cx="466" cy="455" r="20"/>
<circle cx="465.5" cy="455.5" r="5.5"/>
<path class="st3" d="M446,483c0,0,12-17,22-4c0,0,6,13-8,28c0,0-11,18-15-2C445,505,441,493,446,483z"/>
<path class="st3" d="M504.5,452.5c0,0,11,4,44,5c0,0,36.7,43.4,33.3,49.7c0,0-1.8,5.3-10.1-0.7c0,0-15.5-8.3-43.4-7.6
	c0,0-7.9,0.6-11.9,0.6c0,0-4-16-19-17C497.5,482.5,489.5,464.5,504.5,452.5z"/>
<path class="st2" d="M498,483c0,0-13,5-16,37c0,0-9,52,8,61c0,0,15.7,10.4,31.9-13.3c0,0,7.3-13.3-1.3-40.5c0,0-1.5-1.9,0.5-2.6
	c0,0,10.8-12.4,4.4-24.5L516,500C516,500,514,484,498,483z"/>
<path class="st2" d="M385.3,396.2c0,0-12.9,18.8,2.4,38.8c0,0,28.8,51.4,6.1,45.7c0,0-12.1-1.6-35.9-25.1c0,0-22.7-20.4-22.3-31
	c0,0,1.9-1.8-1.8-3.7c0,0-15.5-13.1-18.6-28c0,0-21.9-63.8,0-128.8c0,0,5.9-20.4,19.4-21.7c0,0,3-2.3-2.3-11.8
	c0,0,38.9-69.3,132.3-81.4c0,0,65.6-1.4,82.5,15.8c0,0-2,31.7,28.4,11.4c0,0,59.1,9.3,78.3,110.5c0,0,13.2,70-29.5,99.1
	c0,0-16.2,5.1-8.2,16.1c0,0-10,20-40.8,34.2c0,0-20.3,13.8-27.3,20.8c0,0-37-1-43-6c0,0-5,0-5-16c0,0-15-20-34-25c0,0-31,3-34-6
	c0,0-6-14-25-17C407,387,390.6,383.3,385.3,396.2z"/>
<path class="st4" d="M289,572c0,0-5-6,3-7c0,0-1-5,6-5c0,0,1-6,7-3c0,0,2-5,7-2c0,0,5-2,7,2c0,0,6-2,7,3c0,0,6-2,7,3c0,0,6-2,6,4
	c0,0,7,0,5,6c0,0,6,0,5,6c0,0,7,2,3,8c0,0,4,0,2,6c0,0,5,1,2,7c0,0,4,2,0,6c0,0,5,3,0,7c0,0,3,3-1,6c0,0,3,5-2,6c0,0,2,5-2,6
	c0,0,1,6-4,6c0,0,2,5-3,6c0,0,1,5-3,5c0,0,1,6-5,6c0,0,1,4-5,4c0,0-4,8-9,0c0,0,0-2,1-3c0,0-4-3,0-7c0,0-2,0-1-3c0,0-3,0-3-2
	c0,0-4,2-6,0c0,0-2,6-7,2c0,0-3,4-8,0c0,0-5,2-7-2c0,0-3,3-6-1c0,0-5,2-7-2c0,0-6,1-7-4c0,0-6,1-5-4c0,0-7,0-6-5c0,0-6,1-6-5
	c0,0-6,0-4-5c0,0-6-3-3-6c0,0-6-3-3-7c0,0-4-4-1-7c0,0-4-5,1-8c0,0-2-5,2-6c0,0,0-7,6-6c0,0-1-7,7-4c0,0,3-6,8,0c0,0,5-5,8,2
	c0,0,4-4,7,2h3C285,577,284,573,289,572z"/>
<path class="st2" d="M294,584c0,0,2-31,42-6c0,0,23,17,8,51c0,0-6,15-10,17c0,0-6,11-4-1c0,0-4-11-7-11c0,0-5-4-12,0c0,0-6,4-22-1
	c0,0-19-5-27-16c0,0-17-12-9-29c0,0,9-12,26-4l16,13C295,597,294,589,294,584z"/>
<path class="st4" d="M569,187c0,0-6-13,19,0c0,0,35,20,43,51c0,0-25-32-40-40C591,198,577,192,569,187z"/>
<path class="st1" d="M1764,648.2c-0.2,1-0.5,2-0.5,3.1c-0.3,19.3-0.6,38.7-0.9,58c-0.1,4.4-0.4,8.9-0.6,13.3c-0.1,2-0.9,3.2-2.8,4.2
	c-10.9,5.5-22.6,8.5-34.6,9.8c-12.7,1.4-25.4,1.9-38.1-0.4c-18-3.2-28.5-14.3-33.1-31.6c-3.5-13.2-3.5-26.8-2.7-40.3
	c0.5-8.5,1.9-16.9,4.9-24.9c6.9-18.4,19.8-27.3,39.5-26.9c8.6,0.1,16.9,1.5,25,5.6c0-3.6,0-6.7,0-9.9c0-5.7,0-11.4,0-17.1
	c0-9.4-4.1-13.9-13.7-14.2c-10.5-0.4-20.8,1-31.1,3.1c-6.1,1.3-12.2,3-18.5,4.6c-2.8-4.9-4.3-10.5-5.1-16.4
	c-0.7-5.1-1.2-10.1,0.4-15.2c1.4-4.4,4.1-7.5,8.4-9.3c10.5-4.5,21.6-6.9,32.8-7.8c10.6-0.8,21.2-0.9,31.8-0.6
	c5.3,0.2,10.7,1.5,15.8,3.1c12.5,4,18.9,13.4,21.2,25.9c0.8,4.3,1.3,8.7,1.9,13.1C1764,601,1764,624.6,1764,648.2z M1719.4,669.8
	c0.2,0,0.4,0,0.6,0c0-6.8,0.1-13.5-0.1-20.3c0-1.1-1-2.8-2-3.3c-7.6-3.5-16.7-3.2-19.5,8c-3.2,12.4-3.4,25.1-0.8,37.6
	c2,9.7,10.9,13.1,19.4,7.9c1.6-1,2.5-2.2,2.5-4.2C1719.4,687,1719.4,678.4,1719.4,669.8z"/>
<path class="st2" d="M1102.8,318.4c-9,1.4-18.2,2.6-27.1,4.4c-11.8,2.4-23.5,5.4-35.3,8c-3.4,0.8-5.8,2.6-7.2,5.7
	c-3.4,7.7-7,15.3-10.1,23.1c-5,12.9-9.8,26-14.5,39.1c-2.9,8-8.1,13.2-16.6,14.8c-0.4,0.1-0.8,0.2-1.1,0.2c-8.6,0.4-11.7-1.9-9.5-10
	c2.8-9.9,6.1-19.7,9.7-29.4c4.1-11.4,8.9-22.6,13.1-34c2.5-6.9,1.1-8.4-6.2-7.3c-3.9,0.6-7.9,1-11.8,1.3c-4.3,0.3-6.2-1.7-6.4-6
	c-0.2-4.2,1.4-7.6,4.7-10.1c5.4-4.1,11.6-6.9,18.3-7.4c5.4-0.4,8.8-2.9,10.7-7.5c2.4-5.9,4.8-11.8,6.3-18
	c3.4-14.1,6.2-28.3,9.4-42.4c0.7-3.3,1.9-6.5,3.3-9.6c1.5-3.5,4.5-5,8.3-5.2c10.1-0.5,15,4,18.2,15.3c0.6,2,0.1,4.8-0.8,6.8
	c-5.1,10.9-7.7,22.6-10.6,34.2c-1.4,5.7-2.8,11.5-3.8,17.2c-1.1,6.4,0.3,8.4,6.6,10.3c13.8,4.1,28,4.3,42.2,4.3
	c3.9,0,7.7,0.1,11.6-0.2c1.4-0.1,3.1-0.6,4.1-1.5c12.3-10.2,26-18,40.4-24.8c7.9-3.8,16-4,24.2-1.4c4.1,1.3,7.5,3.7,9.6,7.5
	c1.8,3.3,3.5,6.7,4.8,10.2c1.7,4.6,0.8,8-2.1,10.3c-3.3,2.6-8.7,3.1-12.3,0.9c-1.4-0.8-2.6-2-3.9-3c-3.6-2.9-7.3-3.3-11.6-1.3
	c-22.4,10.5-40.2,26.5-54.7,46.4c-1.3,1.8-2.3,3.8-3.5,5.7c0.3,0.3,0.6,0.6,0.8,0.8c1.5-0.8,3-1.5,4.4-2.4
	c11.7-7.4,23.1-15.2,35.1-22c9-5,18.6-8.9,28.1-12.9c4.4-1.8,9.2-3.3,13.8,0.1c5.2,3.8,8.8,8.8,9.5,15.3c0.2,1.7-0.6,3.6-1.3,5.2
	c-3.5,7.6-6.2,15.2-3.6,23.7c4.2,13.6,14.1,15.6,24.8,9.3c4-2.3,7.4-5.6,10.9-8.5c0.7-0.6,1.2-1.5,1.4-2.4
	c3.8-12.9,7.5-25.7,11.1-38.6c0.6-1.9,1.1-3.9,1.3-5.9c0.1-1-0.1-2.6-0.8-3.1c-0.6-0.5-2.3-0.2-3.1,0.4c-5.3,3.9-10.6,7.8-15.7,11.9
	c-3.7,3-7.2,6.3-11.2,9c4.8-5.1,9.7-10.2,14.5-15.3c6.3-6.8,12.7-13.5,18.9-20.4c3-3.5,5.6-7.4,8.3-11.2c5.8-8.2,15.6-10.1,24-4.7
	c3.6,2.3,4.5,6.1,2.2,11.1c-2.4,5.4-5.1,10.6-7.6,15.9c-4.4,9.3-8.8,18.7-13.1,28.1c-0.7,1.4-1,3-1.5,4.5c0.4,0.3,0.8,0.6,1.1,0.9
	c1.1-1.4,2.2-2.9,3.3-4.2c10.2-11.8,21.8-22.1,34.4-31.4c5-3.7,10.7-6.4,16.9-7.1c13.5-1.6,23,4.7,27.7,18c3.4,9.7,3.8,19.8,4.3,30
	c0.3,5.5,0.8,11,2.1,16.3c1.9,7.4,6.2,9.8,13.7,8.6c5.7-1,11-3,15.8-6.3c0.7-0.5,1.4-1.9,1.1-2.6c-5.6-18.5-2.3-35.6,8.1-51.7
	c8.4-12.9,20.4-21.2,34.1-27.3c9.8-4.4,19.7-8.4,30.5-9.8c6.3-0.8,11.9,0.5,16.3,5.4c2.8,3.1,3.9,6.9,3.7,11c-0.2,4.4-2.8,7.5-8,8.7
	c-4.7,1.1-9.5,1.3-14.3,1.9c-11.5,1.3-22.2,4.8-30.7,12.9c-9.4,8.8-13.6,20.1-12.8,32.9c0.6,9.2,9.3,17.8,20.4,20.5
	c8.1,2,16.2,0.4,24-1.8c16.6-4.7,30.6-14.1,43.8-24.9c0.5-0.4,0.9-1.2,1.1-1.9c4-14,7.9-28,11.8-42.1c0.4-1.3,0.5-2.7,0.7-4
	c0.5-4-0.2-5.1-4.3-6.6c0.4-0.7,0.6-1.6,1.2-2.1c6-5,12.2-10.1,20.2-11.2c3.9-0.5,8,0.4,12,1.1c2.8,0.5,3.9,2.8,3.9,5.4
	c0,2.4-0.4,4.8-1.1,7.1c-5.3,17.5-10.7,35.1-16.1,52.6c-4,12.7-8.5,25.3-15.7,36.6c-1.5,2.4-3.3,4.7-5.2,7c-3.2,4-7.6,5.4-12.6,5.1
	c-3.3-0.2-4.4-1-4.1-4.3c0.6-5.8,1.4-11.7,2.6-17.4c1.4-7.2,3.3-14.2,4.5-21.7c-2.2,2.1-4.2,4.3-6.5,6.2c-9.9,8.4-19.5,17.4-30,25
	c-14.7,10.7-31.6,14.1-49.6,11.5c-9.7-1.4-16.7-7.6-22.7-14.9c-0.6-0.7-1.2-1.5-1.9-2.5c-3.1,2.9-5.9,6-9.1,8.5
	c-5.6,4.3-11.2,8.6-17.3,12c-3.4,1.9-7.9,2.5-11.9,2.7c-7.4,0.3-12.9-3.3-16.3-9.9c-4.2-8.2-5.5-17.2-6.5-26.3c-0.8-7-1.4-14-2.7-21
	c-1.4-7.3-3.2-8-9.9-4.9c-15.6,7.3-28.5,18-39.2,31.5c-6.9,8.6-13.8,17.2-20.8,25.7c-1.3,1.6-3,3-4.7,4.3c-3.2,2.4-6.7,4.2-10.7,2.3
	c-4.1-2-6.1-5.9-5.9-10.2c0.1-5.3,1.2-10.5,1.9-15.8c0.1-0.9,0.3-1.8,0.5-3.5c-3.8,4.3-6.9,7.9-10.1,11.5c-3.8,4.2-8,7.8-13.3,10.1
	c-3,1.3-6.1,1.8-9.3,1c-11.5-2.9-20.3-9.2-25.1-20.4c-1.3-3-2.2-6.2-3.8-9.1c-1.6-2.9-3.5-5.8-5.8-8.2c-2.5-2.6-5.9-2.3-8.9-0.6
	c-5.2,3-10.3,6.1-15.2,9.6c-11.6,8.2-23.2,16.5-36.4,22c-6.5,2.7-13.6,4.3-20.4,6.3c-3.6,1.1-6.3-0.5-8.5-3.4
	c-6.5-8.7-7.4-19.5-1.7-28.8c8.4-13.8,18.6-26.1,29.5-37.9c3.3-3.5,6.8-6.8,10.1-10.2C1103,318.8,1102.9,318.6,1102.8,318.4z"/>
<path class="st1" d="M928.6,598.3c0.1-21.6,0.7-42,3.5-62.2c2.4-17,6-33.6,14.4-48.9c10.4-18.8,26.7-28.3,47.8-30
	c9.5-0.7,18.9-0.4,28.2,1.5c16.8,3.4,28.3,13.4,35.6,28.7c5.8,12.3,8.6,25.3,10.6,38.7c2.7,18.5,3.8,37.1,3.6,55.7
	c-0.2,19.1-0.3,38.2-1.5,57.3c-1.1,19.7-4.2,39.2-11.4,57.7c-3.3,8.4-7.6,16.2-13.8,22.9c-9.5,10.3-21.5,15.2-35,16.8
	c-11.6,1.4-23.1,1-34.5-1.7c-17.5-4.2-28.3-15.8-34.8-31.9c-5-12.5-7.5-25.5-9.2-38.8C929.3,641.9,928.8,619.5,928.6,598.3z
	 M1025.4,592.9c-0.7-18.7-1.3-37.4-2.3-56.1c-0.4-8.2-1.8-16.3-5.1-24c-3-6.9-8-11-15.8-11.1c-7.4-0.1-11.7,4.1-14.7,10.3
	c-3.9,8.1-5.5,16.7-6.1,25.5c-1.3,19.2-2.2,38.4-2.8,57.5c-0.4,11.4-0.2,22.8,0.3,34.2c0.5,12,1.1,24.1,2.5,36.1
	c0.7,6.1,2.6,12.3,5.3,17.9c5.7,11.7,20.8,12.2,27.8,1.4c1.4-2.2,2.5-4.6,3.4-7c3.3-9.1,4.6-18.6,5.1-28.1
	C1024.1,630.6,1024.6,611.8,1025.4,592.9z"/>
<path class="st1" d="M732.5,733.5c0-1.1,0-2.2,0-3.2c0-86.9,0-173.8,0-260.7c0-6.3,1.5-8.8,7.7-8.8c22.1-0.1,44.3-2.3,66.2,2.2
	c19.2,4,31.6,16.1,39.1,33.7c5.1,12,7.6,24.7,9.2,37.5c2.5,18.9,3,37.9,2.7,57c-0.4,26.5-1.8,52.9-7.9,78.8
	c-3.4,14.5-8.3,28.3-17.3,40.4c-10.6,14.2-24.8,22.1-42.4,22.8c-18.5,0.7-37.1,0.4-55.7,0.5C733.7,733.8,733.2,733.6,732.5,733.5z
	 M776.5,692.3c13,1.2,17.5-1.4,21.6-13.2c2.1-6,3.5-12.3,4.6-18.5c3.6-21.6,4.3-43.5,4.4-65.3c0.1-18.9-0.5-37.9-1.6-56.8
	c-0.5-8.4-2.2-16.9-4.8-24.9c-4.1-12.6-10.9-14.6-24.2-13C776.5,564.4,776.5,628.3,776.5,692.3z"/>
<path class="st2" d="M821.9,298.7c-14.8-0.7-27.4-1.4-39.9-1.8c-4.1-0.1-8.3,0.4-12.4,0.9c-3.3,0.4-5.5,2.7-6.3,5.7
	c-1.8,7.4-4,14.8-4.6,22.3c-1.3,15.3-0.3,30.5,4.4,45.3c0.6,1.9,1.3,3.9,2.1,5.7c5.8,12.8,15,15.7,26.4,15.2
	c21.5-1,40.9-9.1,59.7-18.9c10-5.2,20-10.6,30.3-15.2c5.5-2.5,11.6-3.5,17.4-5.1c1.1-0.3,2.3-0.2,3.5,0c3.4,0.4,5.2,2.8,4.2,6.1
	c-1.5,4.9-4.3,8.9-8.7,11.5c-8.9,5.3-17.9,10.3-26.9,15.4c-11.9,6.7-23.5,13.8-35.7,19.9c-15.2,7.7-31.5,11.9-48.4,14.2
	c-21.4,3-40-11.4-47.1-26.5c-6.7-14.4-10.1-29.5-10.4-45.4c-0.5-29.9,5.2-58.8,13-87.4c5.2-18.9,11.1-37.6,20.6-54.9
	c3.7-6.7,8.2-13.1,12.5-19.5c6.4-9.5,19.8-4.8,22.8,2.8c1.1,2.8,1.9,5.9,2.3,8.9c0.5,3.9,0.5,4.5,4.6,4.5c5.7,0,11.4,0,17.1-0.8
	c24-3.2,48.1-4.7,72.3-3.6c22.4,1,44.8,2.4,66.8,6.8c5.5,1.1,10.8,2.8,16.2,4.4c1.6,0.5,3.3,1.3,4.6,2.3c3.5,2.6,3.1,6.6-0.8,8.4
	c-10.4,5-21.4,6.7-32.9,6c-10.6-0.6-21.2-0.2-31.9-0.1c-10,0.1-20.1,0.3-30.1,0.6c-23.5,0.7-46.9,1.2-70.4,2.3
	c-8.5,0.4-17,2.3-25.4,3.9c-5,0.9-8.9,3.9-10.9,8.6c-2.1,4.9-4.1,9.8-5.5,14.9c-1.7,6.3,1.2,10.8,7.7,11.8c9.6,1.5,19.3,2.7,29,3.4
	c10.9,0.9,21.8,1.2,32.7,1.6c6.4,0.2,12.7,0,19.1,0.3c12.3,0.7,24.6,1.8,37,2.5c3.1,0.2,6.2-0.3,9.3-0.3c3.6,0,4,0.9,2.3,4.2
	c-2.4,4.5-5.9,7.5-10.7,9.2c-10.3,3.8-21.1,5.8-32,6.7C852.5,297.1,836.1,297.9,821.9,298.7z"/>
<path class="st1" d="M1393.7,659.7c0.7,9.2,1,18.1,5.7,26c4,6.9,10.6,9.2,18.1,9.5c13.2,0.4,25.6-3.2,37.6-8.3
	c1.6-0.7,3.2-1.4,4.8-2.1c0.2-0.1,0.4,0,1.1,0c0.8,4.5,1.7,9.1,2.3,13.8c0.5,4.5,0.5,9.1,0.8,13.6c0.4,6.2-2.4,10.8-7.1,14.4
	c-6.7,5-14.4,7.3-22.4,8.9c-13,2.5-26.1,3.3-39.2,1.3c-19.2-2.9-31.5-14.4-38.4-32.2c-5.8-14.9-7.7-30.4-8.3-46.2
	c-0.8-21.8-0.1-43.5,4.2-64.9c2.4-11.8,5.9-23.2,12.4-33.5c8.7-13.8,21.2-21.7,37.1-24.1c10.1-1.5,20.2-1.9,30.2,0.7
	c16.9,4.4,26.3,16.1,30.8,32.2c2.7,9.7,3.5,19.7,3.5,29.8c0,17.3-1.1,34.5-4.5,51.6c-0.6,2.9-1.8,3.9-4.6,4.3
	c-18.6,2.9-37.4,4.3-56.3,4.8C1399.1,659.4,1396.7,659.5,1393.7,659.7z M1401,625.7c6.3-1,12.5-2,18.8-3c1.9-0.3,2.9-1.4,3.2-3.5
	c1.8-10.7,1.6-21.3,0.7-32c-0.3-2.9-1.1-5.9-2-8.7s-3-4.6-5.9-5.5c-5.9-1.8-11.1-0.1-14.4,5.1c-1.3,2.1-2.4,4.4-3.1,6.8
	c-3.4,10.8-4.2,21.9-4.7,33.1C1393.4,625.5,1393.5,625.5,1401,625.7z"/>
<path class="st1" d="M1346.1,538.3c-1.9,9.5-3.7,18.5-5.5,27.5c-7.3,36.3-14.5,72.6-21.8,109c-3.7,18.7-7.5,37.5-11.2,56.2
	c-0.4,2-1.1,3.2-3.4,3.3c-10.2,0.4-20.4,1.3-30.7,1.3c-6.1,0-10.8-3.7-12.9-9.2c-2.4-6.4-4-13.1-5.4-19.7
	c-8.1-39.7-16.1-79.5-24.1-119.2c-2.6-12.8-5.2-25.5-7.7-38.3c-1.2-6.2,0.4-8.8,6.6-9.2c13.7-0.8,27.4-1.2,41.2-1.7
	c7.1,50.2,12.5,99.8,15,149.8c0.3,0,0.6,0,0.9,0c0.4-5.1,0.7-10.1,1.1-15.2c1.5-19.7,2.8-39.5,4.6-59.2c2.1-21.8,4.7-43.6,7.1-65.4
	c0.7-6.6,1.8-8.3,8.4-8.7C1320.9,538.7,1333.3,538.7,1346.1,538.3z"/>
<path class="st1" d="M1136.8,447.2c0,1.5,0,2.8,0,4c0,91.1,0,182.1,0,273.2c0,7.3-0.3,8.2-7.6,8.7c-11.8,0.7-23.7,0.8-35.9,1.1
	c0-1.8,0-2.9,0-4.1c0-88.3,0-176.5,0-264.8c0-0.1,0-0.2,0-0.3c0-12,4.3-16.7,16.3-17.4c8.6-0.5,17.2-0.5,25.8-0.6
	C1135.7,446.9,1136.1,447,1136.8,447.2z"/>
<path class="st1" d="M1634.1,579.3c-6-2.4-11.8-3.7-17.9-2.6c-1.6,0.3-3.2,0.6-4.8,1.2c-8.1,2.7-8.8,3.8-8.8,12.2
	c0,31.7,0,63.4-0.1,95.1c0,13.3-0.1,26.7-0.1,40c0,5.9-0.8,7.3-6.6,7.6c-12.4,0.7-24.9,0.9-37.6,1.4c-0.1-1.6-0.2-2.6-0.2-3.6
	c0-58.6,0-117.1-0.1-175.7c0-2.1,0.7-3.3,2.5-4.4c16.6-10.5,34.5-16.3,54.2-15.7c4.3,0.1,8.7,0.7,12.9,1.8c6,1.5,9.6,5.8,10.3,11.9
	C1639.1,558.9,1637.4,569,1634.1,579.3z"/>
<path class="st2" d="M1705.5,371.8c-7.6,9.3-14.1,19.5-24.9,25.8c-4.5,2.6-9.2,3.1-14.2,1.5c-10.8-3.5-18.8-10-23-20.8
	c-1.1-2.8-1.9-5.7-3.4-8.3c-1.6-2.9-3.6-5.7-5.9-8.1c-2.4-2.4-5.6-2.1-8.4-0.5c-4.7,2.7-9.4,5.4-13.8,8.5
	c-12.2,8.6-24.2,17.4-38,23.2c-6.6,2.8-13.7,4.4-20.7,6.3c-3.4,1-5.9-0.5-8-3.2c-6.6-8.4-8-19.6-2.1-28.5
	c7.3-11,15.3-21.6,23.7-31.8c13.6-16.6,30.1-30,49.2-39.9c0.4-0.2,0.8-0.5,1.3-0.8c-4.5-1.7-8.9-3-13-5
	c-12.5-5.8-22.3-15.2-31.5-25.2c-7.3-8-14.7-15.9-22-23.9c-2.2-2.4-5.1-3.5-8-4.9c-4.3-2.2-8.3-5.2-11.8-8.5c-2.4-2.3-2.2-5.8-1.3-9
	c2.5-9.8,7.8-14.6,16.6-15c6.4-0.2,11.8,2.7,13.9,8.8c1.7,4.9,2.6,10.1,3.2,15.2c1.6,14.8,7.9,27.5,17.3,38.9
	c10.1,12.2,23.1,20.4,37.6,26.2c1.3,0.5,3.2,0.3,4.5-0.4c6.8-3.3,13.6-6.3,21.5-5.7c12.6,0.9,21.9,9.5,23.4,22.1
	c0.4,3.2-0.2,6-3.1,7.9c-3.4,2.2-7,2.8-10.7,1.2c-1.8-0.8-3.4-2.2-4.9-3.5c-3.7-3-7.4-3.4-11.8-1.3c-22.3,10.4-39.8,26.3-54.3,46
	c-1.4,1.9-2.5,4-3.7,6c0.3,0.3,0.5,0.6,0.8,0.9c1.5-0.8,3.1-1.4,4.6-2.4c9.8-6.3,19.3-13.3,29.5-18.9c10.8-6,22-11.2,33.5-15.8
	c11.3-4.5,21.5,2,23.3,14.2c0.3,2-0.3,4.4-1.2,6.3c-4.1,8.7-6.5,17.3-2.3,26.7c4.1,9.3,11.3,11.9,20.6,7.7c4.7-2.1,8.7-5.9,13-9.1
	c1.5-1.1,2.8-2.4,4.1-3.6C1705,371.4,1705.2,371.6,1705.5,371.8z"/>
<path class="st1" d="M1207,538.5c0,1.6,0,2.6,0,3.7c0,61.2,0,122.4,0,183.6c0,5.3-0.8,6.7-6.2,6.9c-12.1,0.6-24.1,0.7-36.2,1.1
	c-1.6,0-2.1-0.7-2-2.1c0-0.6,0-1.2,0-1.7c0-57.1,0-114.3,0-171.4c0-2.3,0.2-4.6,0.5-6.9c0.7-6.1,4.2-9.9,10.1-11.2
	C1184.2,538,1195.4,538.8,1207,538.5z"/>
<path class="st1" d="M1532,538.2c0,1.9,0,3.1,0,4.2c0,61,0,122,0,183c0,5.7-0.8,7-6.5,7.3c-12,0.6-23.9,0.7-35.9,0.9
	c-0.6,0-1.4-1.1-1.8-1.9c-0.3-0.6-0.1-1.5-0.1-2.3c0-57.3,0-114.7,0-172c0-12.3,3-16.5,15.2-17.9
	C1512.3,538.5,1522,538.7,1532,538.2z"/>
<path class="st2" d="M923.2,362.3c-5.4,5.6-10.9,11.2-16.2,16.9c-3.5,3.9-6.7,8-9.9,12.1c-0.9,1.2-1.7,2.6-2.4,4
	c-1.2,2.6-2.9,5.3-0.5,8.1c2.5,2.9,5.8,4.7,9.8,3.7c11.4-2.9,18-10.5,21.1-21.7c2.1-7.6,0.9-15.1-0.3-22.7
	c-1.3-8.1-2.7-16.2-3.9-24.3c-2.4-16.6,3.9-29.7,16.4-40.2c9.7-8.1,20.8-13.3,33.2-15.4c2.3-0.4,4.6-0.4,6.9-0.3
	c5.5,0.3,8.5,4.7,6.8,10c-2,6.3-7,8.9-13.2,10.4c-3.5,0.8-7.1,2.1-9.9,4.2c-10.1,7.7-15.4,18.2-16.6,30.9c-0.7,7.5,0.1,14.7,2,22
	c2.4,9.1,4.5,18.4,3.4,28c-1.5,14.6-11.8,32.1-31.9,36c-9,1.8-17.9,2.8-26.7-0.9c-8.7-3.6-12.6-13.1-7.6-21.1
	c3.7-5.8,8.1-11.3,12.9-16.3c8.2-8.4,17.1-16.2,25.6-24.3C922.7,361.8,922.9,362.1,923.2,362.3z"/>
<path class="st1" d="M890.5,450.8c3.1,0.5,6.3,0.8,9.4,1.7c9.8,2.7,15.9,10.7,17,21.5c1.4,14-2.2,26.8-8.7,38.9
	c-4.6,8.6-10.4,16.2-17.8,22.7c-4.7,4.2-9.8,5.9-16,4.1c-4.7-1.4-7.6-4.4-8.9-9c-0.3-1.1,0.2-2.6,0.8-3.7c4.1-7.3,7.6-14.7,8.7-23.1
	c0.3-2.4,0.2-4.1-2-5.9c-2.6-2.1-4.9-5.1-6.2-8.2c-2.8-6.7-3-13.8-1.2-20.7C868.5,457.9,878.7,450.7,890.5,450.8z"/>
<path class="st2" d="M1063.8,266.4c11.3-2.9,22.6-5.9,34-8.5c8.7-2,15.7-6.3,21.7-13c15.5-17.4,28.3-36.8,40.7-56.4
	c1.3-2.1,2.7-4.2,4.4-6c7.6-8.3,17.7-7.3,23.2,2.6c1.7,3.1,2.9,6.8,3.3,10.3c1.6,15.9,7.4,30.3,14.4,44.3c1.5,3,2.9,6.1,3.8,9.4
	c1.6,5.7-0.4,10.3-5.2,13c-5.2,2.9-11.2,2.3-14.9-2.3c-2.9-3.7-5.5-8-7.2-12.4c-2.9-7.5-4.9-15.4-7.4-23c-0.5-1.6-1.7-3-2.6-4.5
	c-1.5,0.9-3.4,1.5-4.4,2.7c-8.4,10.8-16.7,21.7-25.1,32.5c-4.1,5.4-8.1,10.9-12.3,16.2c-1.4,1.8-3.1,3.5-5,4.9
	c-5.1,4-10.3,3.8-14.6-1c-7.2-8.1-15.6-12.9-26.8-11.3c-5.5,0.8-11.1,1.7-16.6,2.5c-1.1,0.2-2.2,0.3-3.3,0.4
	C1063.8,266.8,1063.8,266.6,1063.8,266.4z"/>
<path class="st1" d="M1534.1,477.5c-0.1,8.9-0.8,16.1-3.9,23c-5.3,11.7-16.6,14.6-27.4,11.3c-5.7-1.7-8.9-6.1-10.6-11.4
	c-3.2-10.5-3.7-21.3-0.8-32c3.4-12.7,12.6-18.7,25.7-17.3c10.5,1.2,15.2,6.1,16.5,17.8C1533.9,472.3,1534,475.6,1534.1,477.5z"/>
<path class="st1" d="M1185.2,513.1c-9.6-0.1-15.4-4.1-18.2-13.1c-3.2-10.4-3.5-21.1-0.7-31.7c3.5-13.2,13.1-18.3,25.8-17
	c9.8,1,14.3,5.4,15.9,15c1.6,10,1.7,20-1.2,29.8c-2.5,8.3-7.3,14.7-16.4,16.5C1188.7,512.9,1187,512.9,1185.2,513.1z"/>
<path d="M1474.6,843.3c0-13.1,0-26,0-38.8c0-6,0-12,0-18c0-5.4,0.3-5.7,6.2-4.6c0,0.9,0,1.8,0,2.8c0,22.9,0,45.8,0,68.8
	c0,1.5,0.8,3.6-1.8,3.8c-2.1,0.2-3.9,0.3-5-2.4c-7.7-19-15.6-37.8-23.4-56.7c-0.4-0.9-0.7-1.7-1.7-2.6c0,1.1,0,2.1,0,3.2
	c0.1,18,0.3,36,0.4,53.9c0,5-0.5,5.4-6.1,4.3c0-0.9,0-1.8,0-2.8c0-22.9,0-45.8,0.1-68.8c0-1.3,0.7-3.5,1.5-3.7
	c2.1-0.5,4.2-0.8,5.5,2.4c7.6,18.8,15.4,37.5,23.1,56.2C1473.7,841.3,1474.1,842.2,1474.6,843.3z"/>
<path d="M744.4,856.9c-1.3,0.2-2,0.4-2.8,0.4c-0.9,0.1-1.9,0-3.1,0c-0.1-1.2-0.2-2.1-0.2-3c0-23,0-46,0-69c0-3.8,0-3.8,3.9-3.8
	s7.7-0.1,11.6,0.1c8.4,0.4,14.2,5,15.5,13.3c0.8,5.1,0.5,10.6-0.2,15.8c-0.8,5.9-4.2,10.4-9.9,13.2c5.6,8.1,8.6,17,10.1,26.4
	c0.2,1,0.3,2.1,0.4,3.2c0.4,3.4-2.2,5.3-5.3,3.7c-0.6-0.3-1-1.5-1.2-2.3c-1.1-8.1-2.9-15.9-6.4-23.3c-3.3-6.9-4.3-7.4-12.4-6
	C744.4,835.9,744.4,846.3,744.4,856.9z M744.4,819.4c2.4,0,4.5,0,6.6,0c5.9,0,9.4-2.5,11.2-8.2c1.7-5.5,1.8-11,0.4-16.6
	c-0.8-3.1-2.6-5.5-5.5-6.7c-4-1.6-8.3-1.1-12.6-0.9C744.4,797.9,744.4,808.4,744.4,819.4z"/>
<path d="M1288.3,857.3c-1.7-6.9-3.2-13.3-4.8-19.8c-0.4-1.7-1.2-3.3-1.9-4.8c-4.7-9.2-2.8-7.5-12.9-7.3c0,10.4,0,20.9,0,31.7
	c-2.1,0.1-3.9,0.2-6,0.3c0-1.3,0-2.2,0-3.2c0-23,0.1-46-0.1-69c0-3,0.8-3.9,3.8-3.7c5,0.4,10.1,0,15,0.7c6.4,0.9,10.3,5.1,11.9,11.2
	c1.7,6.7,1.5,13.4-0.6,20c-1.5,4.7-4.6,8.2-9.3,10.5c4.6,6.7,7.5,13.8,9.1,21.5c0.5,2.6,1,5.3,1.4,8c0.5,3.5-0.1,4.1-3.6,4.1
	C1289.5,857.5,1288.8,857.4,1288.3,857.3z M1268.7,787.2c0,10.8,0,21.4,0,32.3c2.3,0,4.4,0,6.5,0c5.9,0,9.5-2.6,11.2-8.1
	c1.6-5.3,1.8-10.6,0.5-16c-1.1-4.7-4-7.7-9-8.1C1275,787,1272,787.2,1268.7,787.2z"/>
<path d="M1204.7,781.7c0,1,0,1.9,0,2.8c0,22.5,0,45,0,67.5c0,1.9-0.4,3.1-2.3,3.7c-7.1,2.5-14.4,3.3-21.7,2.1
	c-8.7-1.4-13-6.9-13.7-16.8c-0.3-3.9-0.2-7.9-0.2-11.9c0-14.2,0-28.4,0-42.6c0-5.6,0-5.6,6-4.8c0,1.1,0,2.2,0,3.3
	c0,15.9,0,31.9,0,47.8c0,3.2,0.1,6.4,0.7,9.5c1.2,6.6,4.7,9.8,11.5,10c3.6,0.1,7.2-0.7,10.9-1.1c2-0.2,2.5-1.4,2.5-3.4
	c-0.1-20.3,0-40.6,0-60.9C1198.4,781.1,1198.4,781.1,1204.7,781.7z"/>
<path d="M1068.3,856.8c2-7.3,3.9-14.7,5.9-22c4.6-16.9,9.2-33.9,13.9-50.8c0.3-1.1,1.2-2.5,2.2-2.9c1.7-0.6,3.1,0,3.7,2.3
	c5.1,18.8,10.3,37.6,15.5,56.4c1.3,4.7,2.6,9.3,3.8,14c0.3,1.3,1.3,2.9-1,3.5c-2.6,0.8-4.7-0.1-5.2-2.2c-1.4-5.4-2.9-10.8-4.2-16.3
	c-0.4-1.8-1.1-2.5-3.1-2.5c-5.9,0.1-11.8,0.1-17.7,0c-1.8,0-2.5,0.6-2.9,2.4c-1,4.7-2.3,9.4-3.5,14
	C1074.5,858,1073.8,858.4,1068.3,856.8z M1091.1,792.5c-3.2,12.8-6.4,25.4-9.6,38.2c6.5,0,12.6,0,19,0
	C1097.4,817.8,1094.2,805.3,1091.1,792.5z"/>
<path d="M1344.7,856.8c2.2-8.2,4.5-16.5,6.7-24.7c4.3-15.9,8.6-31.8,13-47.7c0.4-1.6,0.6-3.5,3.1-3.3c1.6,0.1,2.4,0.5,2.8,2.2
	c6.5,23.8,13,47.6,19.6,71.4c0.4,1.4,0.5,2.7-1.3,2.8s-4.2,1.3-5-1.7c-1.4-5.4-2.9-10.8-4.2-16.2c-0.5-2.3-1.4-3.1-3.9-3
	c-5.4,0.2-10.8,0.2-16.2,0c-2.3-0.1-3.4,0.6-3.9,3c-0.9,4.6-2.3,9.2-3.4,13.8C1350.9,857.8,1349.9,858.4,1344.7,856.8z M1377,830.7
	c-3.3-13.1-6.4-25.9-9.5-38.3c-3.1,12.5-6.3,25.3-9.6,38.3C1364.4,830.7,1370.5,830.7,1377,830.7z"/>
<path d="M1652.2,781.5c0.1,1.1,0.1,1.8,0.1,2.4c0.2,2.3-0.6,3.3-3.1,3.2c-4.9-0.2-9.9,0-14.8,0c-1,0-2.1,0-3.4,0
	c0,8.7,0,17.1,0,25.9c6.2,0,12.4,0,18.4,0c1.2,5.1,0.6,5.8-4.1,5.8s-9.4,0-14.4,0c0,11,0,21.8,0,32.9c7,0,13.9,0,20.6,0
	c0.3,0.5,0.4,0.7,0.4,0.9c0.2,4.8,0.2,4.8-4.5,4.8c-6.5,0-12.9,0-19.4,0c-1,0-2.1-0.1-3.3-0.1c0-1.2,0-2.2,0-3.1
	c0-22.8,0-45.6,0-68.4c0-4.1,0-4.1,4.2-4.1C1636.7,781.5,1644.3,781.5,1652.2,781.5z"/>
<path d="M936.4,788.7c-4.7-2.5-9.6-3.2-14.7-2.5c-8.3,1.1-11.8,8-7.2,14.9c2.9,4.5,7,8.2,10.6,12.2c2.7,2.9,5.5,5.7,8.1,8.7
	c6.4,7.3,7.1,15.8,4.7,24.8c-1.6,6-5.8,9.8-11.9,10.9c-5.8,1.1-11.6,1.2-17-1.5c-3.8-1.9-4.1-4.3-1.3-7.7c4.5,3.3,9.5,4.2,15,3.4
	c5.8-0.8,9.3-4.6,9.9-10.4c0.6-6.1-1-11.5-5.1-16.1c-4.5-5-9.4-9.7-13.8-14.9c-2.5-2.9-4.9-6.1-6.4-9.5c-3.7-8.6,0.5-17,9.5-19.6
	c5.9-1.7,11.9-1.5,17.7,0.3C938.4,783,939,785.2,936.4,788.7z"/>
<path d="M853.2,781.5c0,1.3-0.1,2.1,0,3c0.2,2-0.8,2.7-2.7,2.6c-5.1-0.1-10.2,0-15.4,0c-1,0-2.1,0.1-3.2,0.2c0,8.6,0,17,0,25.7
	c6.2,0,12.4,0,18.4,0c1.4,5,0.8,5.8-3.9,5.8c-4.8,0-9.6,0-14.5,0c0,11.1,0,21.9,0,32.9c7.1,0,14,0,21.2,0c0,1.4,0.2,2.6-0.1,3.7
	c-0.2,0.7-1,1.9-1.6,1.9c-8.5,0.1-17,0.1-25.6,0.1c0-1.2,0-2,0-2.9c0-23.1,0-46.2-0.1-69.3c0-2.8,0.8-3.7,3.6-3.6
	C837.2,781.6,845,781.5,853.2,781.5z"/>
<path d="M1549.5,856.9c0-23,0-46.1,0-69.5c-5.4,0-10.5,0-15.9,0c0-1.5-0.3-2.8,0.1-3.8c0.3-0.8,1.3-2,2-2c12-0.1,23.9-0.1,36.1-0.1
	c0.1,1,0.1,1.9,0.2,2.7c0.2,2.2-0.8,3.2-3,3.1c-4.3-0.1-8.7,0-13.3,0c0,1.4,0,2.5,0,3.6c0,20.5,0,41,0,61.4
	C1555.6,857.6,1555,858.1,1549.5,856.9z"/>
<path d="M1027.6,781.9c0,0.8-0.1,1.5,0,2.2c0.3,2.4-0.7,3.3-3.1,3.3c-3.4-0.1-6.8,0-10.1,0c-0.9,0-1.9,0.1-3.1,0.1
	c0,23.2,0,46.2,0,69.6c-2.1,0.1-3.9,0.2-6,0.4c0-23.4,0-46.5,0-70c-5.3,0-10.4,0-15.9,0c0-1.5-0.3-2.8,0.1-3.9
	c0.3-0.8,1.3-1.9,2.1-1.9c11.7-0.1,23.4-0.1,35.1-0.1C1026.8,781.6,1027.1,781.7,1027.6,781.9z"/>
</svg>
